<svg width="100" height="29" viewBox="0 0 100 29" fill="none" xmlns="http://www.w3.org/2000/svg">
<path d="M8.3958 8.76054C10.3193 6.82632 13.4045 6.77561 15.2868 8.64746L16.9867 10.3383L18.6833 8.64136C20.6122 6.71063 23.697 6.66551 25.5741 8.54044L27.3385 10.3022C29.2154 12.1774 29.1739 15.2635 27.2451 17.1943L17.0521 27.396L6.79055 17.1917C4.90827 15.3198 4.94209 12.234 6.86559 10.2998L8.3958 8.76054Z" fill="#C67B9C"/>
<path d="M39.738 8.76054C41.6616 6.82631 44.7468 6.77558 46.6291 8.64746L48.3289 10.3383L50.0255 8.64136C51.9544 6.71058 55.0393 6.66537 56.9163 8.54044L58.6807 10.3022C60.5576 12.1774 60.5153 15.2629 58.5865 17.1937L48.3943 27.396L38.132 17.1911C36.2499 15.3192 36.2836 12.2334 38.2071 10.2992L39.738 8.76054Z" fill="#C67B9C"/>
<path d="M73.738 7.76054C75.6616 5.82631 78.7468 5.77558 80.6291 7.64746L82.3289 9.33826L84.0255 7.64136C85.9544 5.71058 89.0393 5.66537 90.9163 7.54044L92.6807 9.3022C94.5576 11.1774 94.5153 14.2629 92.5865 16.1937L82.3943 26.396L72.132 16.1911C70.2499 14.3192 70.2836 11.2334 72.2071 9.29923L73.738 7.76054Z" fill="#C67B9C"/>
</svg>
